<?xml version="1.0" encoding="UTF-8" standalone="no"?>
<svg
   viewBox="0 0 16 16"
   width="16"
   height="16"
   version="1.1"
   id="svg1000"
   sodipodi:docname="TodotIcon.svg"
   xml:space="preserve"
   inkscape:version="1.2.1 (9c6d41e410, 2022-07-14)"
   xmlns:inkscape="http://www.inkscape.org/namespaces/inkscape"
   xmlns:sodipodi="http://sodipodi.sourceforge.net/DTD/sodipodi-0.dtd"
   xmlns="http://www.w3.org/2000/svg"
   xmlns:svg="http://www.w3.org/2000/svg"><defs
     id="defs1004" /><sodipodi:namedview
     id="namedview1002"
     pagecolor="#505050"
     bordercolor="#eeeeee"
     borderopacity="1"
     inkscape:showpageshadow="0"
     inkscape:pageopacity="0"
     inkscape:pagecheckerboard="0"
     inkscape:deskcolor="#505050"
     showgrid="false"
     inkscape:zoom="12.182861"
     inkscape:cx="-9.3984492"
     inkscape:cy="13.133204"
     inkscape:window-width="1920"
     inkscape:window-height="1007"
     inkscape:window-x="0"
     inkscape:window-y="0"
     inkscape:window-maximized="1"
     inkscape:current-layer="svg1000" /><path
     fill="none"
     d="M 0,0 H 16 V 16 H 0 Z"
     id="path996"
     style="stroke-width:0.666667" /><path
     d="M 6,0.66666667 V 2 h 4 V 0.66666667 h 1.333333 V 2 H 14 a 0.66666667,0.66666667 0 0 1 0.666667,0.6666667 V 13.333333 A 0.66666667,0.66666667 0 0 1 14,14 H 2 A 0.66666667,0.66666667 0 0 1 1.3333333,13.333333 V 2.6666667 A 0.66666667,0.66666667 0 0 1 2,2 H 4.6666667 V 0.66666667 Z M 13.333333,6.6666667 H 2.6666667 V 12.666667 H 13.333333 Z M 10.024,7.424 10.966667,8.3666667 7.6666667,11.666667 5.3093333,9.3093333 l 0.944,-0.9426666 1.414,1.4146666 L 10.024667,7.424 Z M 4.6666667,3.3333333 h -2 v 2 H 13.333333 v -2 h -2 V 4 H 10 V 3.3333333 H 6 V 4 H 4.6666667 Z"
     id="path998"
     style="fill:#ffffff;fill-opacity:1;stroke-width:0.666667" /></svg>
