<?xml version="1.0" encoding="UTF-8" standalone="no"?>
<svg
   viewBox="0 0 16 16"
   width="16"
   height="16"
   version="1.1"
   id="svg1000"
   sodipodi:docname="TodotIcon.svg"
   xml:space="preserve"
   inkscape:version="1.2.1 (9c6d41e410, 2022-07-14)"
   xmlns:inkscape="http://www.inkscape.org/namespaces/inkscape"
   xmlns:sodipodi="http://sodipodi.sourceforge.net/DTD/sodipodi-0.dtd"
   xmlns="http://www.w3.org/2000/svg"
   xmlns:svg="http://www.w3.org/2000/svg"><defs
     id="defs1004" /><sodipodi:namedview
     id="namedview1002"
     pagecolor="#505050"
     bordercolor="#eeeeee"
     borderopacity="1"
     inkscape:showpageshadow="0"
     inkscape:pageopacity="0"
     inkscape:pagecheckerboard="0"
     inkscape:deskcolor="#505050"
     showgrid="false"
     inkscape:zoom="12.182861"
     inkscape:cx="-9.3984492"
     inkscape:cy="13.133204"
     inkscape:window-width="1920"
     inkscape:window-height="1007"
     inkscape:window-x="0"
     inkscape:window-y="0"
     inkscape:window-maximized="1"
     inkscape:current-layer="svg1000" /><path
     d="m 5.6,0 v 1.6 h 4.8 V 0 H 12 v 1.6 h 3.2 A 0.80000001,0.80000001 0 0 1 16,2.4 v 12.799999 a 0.80000001,0.80000001 0 0 1 -0.8,0.8 H 0.8 a 0.80000001,0.80000001 0 0 1 -0.8,-0.8 V 2.4 A 0.80000001,0.80000001 0 0 1 0.8,1.6 H 4.000001 V 0 Z m 8.8,7.2 H 1.6 v 7.2 H 14.4 Z M 10.4288,8.1088 11.560001,9.24 7.6000005,13.2 4.7712,10.3712 5.904,9.24 7.6008004,10.9376 10.429601,8.1088 Z M 4.000001,3.2 H 1.6 V 5.6 H 14.4 V 3.2 H 12 V 4 H 10.4 V 3.2 H 5.6 V 4 H 4.000001 Z"
     id="path998"
     style="fill:#ffffff;fill-opacity:1;stroke-width:0.8" /></svg>
