<?xml version="1.0" encoding="UTF-8" standalone="no"?>
<svg
   viewBox="0 0 4.8 4.8"
   width="24"
   height="24"
   version="1.1"
   id="svg282"
   sodipodi:docname="Todo.svg"
   inkscape:version="1.2.1 (9c6d41e410, 2022-07-14)"
   xmlns:inkscape="http://www.inkscape.org/namespaces/inkscape"
   xmlns:sodipodi="http://sodipodi.sourceforge.net/DTD/sodipodi-0.dtd"
   xmlns="http://www.w3.org/2000/svg"
   xmlns:svg="http://www.w3.org/2000/svg">
  <defs
     id="defs286" />
  <sodipodi:namedview
     id="namedview284"
     pagecolor="#505050"
     bordercolor="#eeeeee"
     borderopacity="1"
     inkscape:showpageshadow="0"
     inkscape:pageopacity="0"
     inkscape:pagecheckerboard="0"
     inkscape:deskcolor="#505050"
     showgrid="false"
     inkscape:zoom="1.6625"
     inkscape:cx="-143.45865"
     inkscape:cy="51.127819"
     inkscape:window-width="1920"
     inkscape:window-height="1007"
     inkscape:window-x="0"
     inkscape:window-y="0"
     inkscape:window-maximized="1"
     inkscape:current-layer="svg282" />
  <path
     fill="none"
     d="M 0,0 H 4.8 V 4.8 H 0 Z"
     id="path278"
     style="stroke-width:0.2" />
  <path
     d="M 1.8,0.2 V 0.6 H 3 V 0.2 H 3.4 V 0.6 H 4.2 A 0.2,0.2 0 0 1 4.4,0.8 V 4 A 0.2,0.2 0 0 1 4.2,4.2 H 0.6 A 0.2,0.2 0 0 1 0.4,4 V 0.8 A 0.2,0.2 0 0 1 0.6,0.6 H 1.4 V 0.2 Z M 4,2 H 0.8 V 3.8 H 4 Z M 3.0072,2.2272 3.29,2.51 2.3,3.5 1.5928,2.7928 1.876,2.51 2.3002,2.9344 3.0074,2.2272 Z M 1.4,1 H 0.8 V 1.6 H 4 V 1 H 3.4 V 1.2 H 3 V 1 H 1.8 V 1.2 H 1.4 Z"
     fill="rgba(255,255,255,1)"
     id="path280"
     style="fill:#ffffff;stroke-width:0.2" />
</svg>
