<?xml version="1.0" encoding="UTF-8" standalone="no"?>
<svg
   viewBox="0 0 24 24"
   width="24"
   height="24"
   version="1.1"
   id="svg1000"
   sodipodi:docname="TodotIcon.svg"
   xml:space="preserve"
   inkscape:version="1.2.1 (9c6d41e410, 2022-07-14)"
   xmlns:inkscape="http://www.inkscape.org/namespaces/inkscape"
   xmlns:sodipodi="http://sodipodi.sourceforge.net/DTD/sodipodi-0.dtd"
   xmlns="http://www.w3.org/2000/svg"
   xmlns:svg="http://www.w3.org/2000/svg"><defs
     id="defs1004" /><sodipodi:namedview
     id="namedview1002"
     pagecolor="#505050"
     bordercolor="#eeeeee"
     borderopacity="1"
     inkscape:showpageshadow="0"
     inkscape:pageopacity="0"
     inkscape:pagecheckerboard="0"
     inkscape:deskcolor="#505050"
     showgrid="false"
     inkscape:zoom="12.182861"
     inkscape:cx="-33.982167"
     inkscape:cy="-2.1341457"
     inkscape:window-width="1920"
     inkscape:window-height="1007"
     inkscape:window-x="0"
     inkscape:window-y="0"
     inkscape:window-maximized="1"
     inkscape:current-layer="svg1000" /><path
     fill="none"
     d="M0 0h24v24H0z"
     id="path996" /><path
     d="M9 1v2h6V1h2v2h4a1 1 0 0 1 1 1v16a1 1 0 0 1-1 1H3a1 1 0 0 1-1-1V4a1 1 0 0 1 1-1h4V1h2zm11 9H4v9h16v-9zm-4.964 1.136l1.414 1.414-4.95 4.95-3.536-3.536L9.38 12.55l2.121 2.122 3.536-3.536zM7 5H4v3h16V5h-3v1h-2V5H9v1H7V5z"
     id="path998"
     style="fill:#a5efac;fill-opacity:1" /></svg>
